<svg xmlns="http://www.w3.org/2000/svg" viewBox="0 0 619 405.61"><defs><style>.cls-1{isolation:isolate;}.cls-2{fill:#594287;}.cls-3{fill:#8b383e;}.cls-4{fill:#ffcf7b;}.cls-5{fill:#8376c1;}.cls-6{fill:#d1a454;}.cls-7{fill:#ce364c;}.cls-10,.cls-8{fill:#231f20;mix-blend-mode:multiply;}.cls-18,.cls-8{opacity:0.25;}.cls-9{fill:#dec9f4;}.cls-10{opacity:0.1;}.cls-11{fill:#c4bfff;}.cls-12{fill:#eedaff;}.cls-13{fill:#ba2744;}.cls-14{fill:#f24052;}.cls-15{fill:#cfecff;}.cls-16,.cls-18{fill:#fff;}.cls-17{fill:#6d5ba8;}.cls-18{mix-blend-mode:overlay;}.cls-19{font-size:20.13px;}.cls-19,.cls-20,.cls-22{fill:#1a4850;}.cls-19,.cls-20{font-family:BrushScriptMT, Brush Script MT;font-style:italic;}.cls-20{font-size:14.4px;}.cls-21{letter-spacing:-0.03em;}.cls-23{fill:#ff8b66;}.cls-24{fill:#b0d6ea;}.cls-25{fill:#ef6e4b;}.cls-26{fill:#0d527c;}.cls-27{fill:#093951;}.cls-28{fill:#db614d;}.cls-29{fill:#0c476b;}</style></defs><title>shopdark</title><g class="cls-1"><g id="Capa_2" data-name="Capa 2"><g id="OBJECTS"><path class="cls-2" d="M584.66,286.81s3-5.91,6.43-.49-4.29,9.91-4.29,9.91-6.43-6.27-5.19-8.77S584.66,286.81,584.66,286.81Z"/><path class="cls-2" d="M559.8,327.64s-2.38-6.17,4-5.1,4.48,9.83,4.48,9.83-9,.56-10-2S559.8,327.64,559.8,327.64Z"/><path class="cls-2" d="M556.41,298.87a3,3,0,0,0-.13-2,7.07,7.07,0,0,1-.23-1.45,1.33,1.33,0,0,1,.2-.92,1.21,1.21,0,0,1,1.3-.2,3.35,3.35,0,0,0,1.34.3,1.18,1.18,0,0,0,.93-.71c.08-.22.1-.46.2-.68a1.32,1.32,0,0,1,1.87-.31,3.78,3.78,0,0,1,1.19,1.74,10.24,10.24,0,0,1,1.19,4.54,30.42,30.42,0,0,1-.63,3.13l-.28-.35-2.46.5a2.92,2.92,0,0,1-.93.1,4.36,4.36,0,0,1-1.57-.71,10.27,10.27,0,0,1-1.66-.91,1.51,1.51,0,0,1-.57-1.67C556.24,299.14,556.34,299,556.41,298.87Z"/><path class="cls-2" d="M593.71,304.07a2,2,0,0,0,0-1c-.16-.39-.59-.57-.88-.87a2,2,0,0,1-.42-1.89,6,6,0,0,1,.9-1.81.61.61,0,0,1,.29-.28.58.58,0,0,1,.4.07,3.38,3.38,0,0,1,1.63,1.76.85.85,0,0,0,.25.43c.28.21.69,0,.9-.3s.42-.81.7-1.17a1,1,0,0,1,1.18-.45c.45.22.5.86.38,1.35a3.23,3.23,0,0,0-.26,1.48.53.53,0,0,0,.14.29c.26.27.71,0,1.08,0a1.42,1.42,0,0,1,1.5,1,2.34,2.34,0,0,1-.3,1.87,6.89,6.89,0,0,1-1.3,1.45l-2.7,2.49.1.38A4.37,4.37,0,0,1,593.71,304.07Z"/><path class="cls-2" d="M535.64,312.64c-.6-.42-.55-1.45-1.22-1.75a1.23,1.23,0,0,0-.92,0,2,2,0,0,0-1.45,1.77c0,.88.93,1.69.61,2.5a2.61,2.61,0,0,1-.65.8,2.28,2.28,0,0,0-.63,2.09,1.55,1.55,0,0,0,1.72,1.15,2,2,0,0,1,.58-.11c.75.09.6,1.49,1.33,1.69a1.11,1.11,0,0,0,.9-.29l3-2.11-.18.11a1.77,1.77,0,0,0,.43-1.35,23.56,23.56,0,0,0-.09-2.66c-.07-.69-.24-1.5-.88-1.77C537.37,312.41,536.35,313.13,535.64,312.64Z"/><path class="cls-2" d="M569.33,320.78c.46-.56.14-1.55.7-2a1.28,1.28,0,0,1,.9-.21,2,2,0,0,1,1.88,1.32c.19.85-.45,1.87.08,2.57a3,3,0,0,0,.84.59,2.27,2.27,0,0,1,1.18,1.85,1.55,1.55,0,0,1-1.35,1.57,1.61,1.61,0,0,0-.58.05c-.7.28-.18,1.59-.83,2a1.15,1.15,0,0,1-.94-.05c-1.15-.4-2.3-.8-3.44-1.22l.2.06a1.79,1.79,0,0,1-.78-1.19,23.09,23.09,0,0,1-.63-2.58c-.12-.68-.17-1.51.37-1.94S568.78,321.44,569.33,320.78Z"/><path class="cls-2" d="M545.1,300.59c-.34-.61-1.23-.7-1.64-1.28a1.28,1.28,0,0,1,.06-1.44,1.91,1.91,0,0,1,1.31-.73c.54-.08,1.18,0,1.54-.43a1.63,1.63,0,0,0,.31-.77,7.4,7.4,0,0,1,.79-1.93.88.88,0,0,1,.36-.38.91.91,0,0,1,.66.09,5.52,5.52,0,0,1,2.74,1.83,5.61,5.61,0,0,1,.6,1.71c.16.68.31,1.36.47,2a3.37,3.37,0,0,1,.12,1.37l.69-.44a1.36,1.36,0,0,1-1.18,1.35c-.19,0-.38,0-.57,0a2.83,2.83,0,0,0-1.31.56l-1.78,1.14a4.31,4.31,0,0,1-1.65.74,1.44,1.44,0,0,1-1.53-.73C544.73,302.45,545.55,301.39,545.1,300.59Z"/><path class="cls-2" d="M571.2,317.63a2,2,0,0,1,.63.36,5.75,5.75,0,0,0,1,.72,1.19,1.19,0,0,0,1.17,0c.43-.27.64-.93,1.14-.93a.61.61,0,0,1,.44.2,1.68,1.68,0,0,1,.36,1.28c0,.72,0,1.43,0,2.14a1.63,1.63,0,0,1-.15.85,2,2,0,0,1-.73.58,3.83,3.83,0,0,0-1.67,2.37l-.49.16a1.46,1.46,0,0,0-.81-.51,4.5,4.5,0,0,1-2.77-3.61,1,1,0,0,1,.06-.58c.2-.37.78-.51.77-.92a1.09,1.09,0,0,0-.23-.5A1.16,1.16,0,0,1,570,318,1.15,1.15,0,0,1,571.2,317.63Z"/><path class="cls-2" d="M556,315a1.8,1.8,0,0,1,.65-.32,5.89,5.89,0,0,0,1.16-.4,1.22,1.22,0,0,0,.68-.95c0-.51-.41-1.05-.12-1.47a.64.64,0,0,1,.41-.26A1.78,1.78,0,0,1,560,312l1.78,1.2a1.53,1.53,0,0,1,.61.6,2.06,2.06,0,0,1,.07.93,3.86,3.86,0,0,0,1,2.72l-.15.49a1.48,1.48,0,0,0-.88.38,4.5,4.5,0,0,1-4.54.26,1,1,0,0,1-.45-.39c-.19-.36,0-.93-.32-1.15a1.12,1.12,0,0,0-.55-.09,1.15,1.15,0,0,1-1-.78A1.13,1.13,0,0,1,556,315Z"/><path class="cls-2" d="M601,315.18a1.8,1.8,0,0,1-.5.53,6.33,6.33,0,0,0-.95.76,1.23,1.23,0,0,0-.32,1.13c.16.48.74.85.62,1.34a.66.66,0,0,1-.3.38,1.77,1.77,0,0,1-1.34,0l-2.07-.52a1.65,1.65,0,0,1-.78-.36,2.07,2.07,0,0,1-.39-.85,3.84,3.84,0,0,0-1.87-2.22l0-.51c.32-.08.51-.39.7-.65a4.53,4.53,0,0,1,4.19-1.79,1.06,1.06,0,0,1,.55.21c.3.28.29.89.7,1a1.15,1.15,0,0,0,.54-.1,1.12,1.12,0,0,1,1.26,1.64Z"/><path class="cls-3" d="M560.43,351.26c-1.22-4.91-3.64-11.95-8.28-17.58a36,36,0,0,0-5.11-4.81,33.48,33.48,0,0,1-6.15-6.05,31.72,31.72,0,0,1-3.3-6.22c-.44-1-.9-2.09-1.42-3.11a22.29,22.29,0,0,0-4.09-5c-.47-.48-.94-.95-1.36-1.4l1.6-1.51c.42.44.87.9,1.33,1.36a24.12,24.12,0,0,1,4.48,5.53c.55,1.09,1,2.18,1.48,3.23a29.24,29.24,0,0,0,3.06,5.8,31.53,31.53,0,0,0,5.77,5.65,38.17,38.17,0,0,1,5.41,5.11c4.9,6,7.44,13.31,8.72,18.45Z"/><path class="cls-3" d="M571.41,347.72c3-7.19.31-15.23-2.65-22.15l-.49-1.13c-2.72-6.33-5.54-12.88-4.39-19.4.12-.66.27-1.33.43-2a17,17,0,0,0,.67-4.65,17.48,17.48,0,0,0-1.82-6.34l-7-16.07-2,.88,7,16.07a15.76,15.76,0,0,1,1.64,5.54,15.56,15.56,0,0,1-.61,4.06c-.17.7-.34,1.41-.46,2.12-1.27,7.16,1.68,14,4.54,20.65l.48,1.13c2.79,6.5,5.28,14,2.64,20.44Z"/><path class="cls-3" d="M562.48,347.48l1.83,1.23a45,45,0,0,0,4.39-8.29,6.78,6.78,0,0,0,.6-2.37,7.08,7.08,0,0,0-.31-1.92l-.15-.62a6.3,6.3,0,0,1,.87-4.69,13.49,13.49,0,0,1,2.56-2.7,10.8,10.8,0,0,0,4.55-8.59l2.46-18.18-2.18-.3-2.46,18.19a8.81,8.81,0,0,1-3.83,7.23,15.39,15.39,0,0,0-3,3.16,8.52,8.52,0,0,0-1.16,6.34c0,.24.11.47.17.71a5.31,5.31,0,0,1,.23,1.33,4.81,4.81,0,0,1-.43,1.58A42.86,42.86,0,0,1,562.48,347.48Z"/><path class="cls-3" d="M575.06,347.52c2.84-5,5.79-10.14,7.18-15.91.1-.42.2-.84.29-1.26.55-2.42,1.11-4.92,2.84-6.31a10.15,10.15,0,0,1,1.65-1c.21-.11.43-.22.63-.34a18.61,18.61,0,0,0,8.88-11.16,34.55,34.55,0,0,0,.75-3.52,33.36,33.36,0,0,1,.71-3.31c.47-1.67,1.44-3.88,3.36-4.89l-1-1.95c-2.6,1.38-3.86,4.15-4.45,6.23a36,36,0,0,0-.76,3.53,32.78,32.78,0,0,1-.7,3.31,16.41,16.41,0,0,1-7.82,9.83l-.59.32a12,12,0,0,0-2,1.22c-2.34,1.87-3,4.89-3.62,7.55-.09.41-.18.82-.28,1.22-1.32,5.47-4.19,10.48-7,15.34Z"/><path class="cls-3" d="M560.72,348.24c6.72-11.86,7.76-24.84,2.79-34.71-2.25-4.47-5.65-8.19-8.93-11.79-.83-.91-1.66-1.82-2.47-2.74-3.45-3.92-7.5-9.19-8.2-15.23l-2.19.25c.77,6.65,5.08,12.28,8.74,16.44.81.93,1.65,1.84,2.49,2.76,3.18,3.49,6.47,7.11,8.59,11.3,4.64,9.21,3.62,21.41-2.74,32.64Z"/><path class="cls-3" d="M581.48,351.93c2.26-9.28,4.81-19.79,3.46-30.06-.14-1.05-.32-2.1-.5-3.15a44.17,44.17,0,0,1-.71-5.46c-.29-6.52,2.28-12.53,5-18.88,2.15-5,4.37-10.23,5.07-15.73l-2.19-.27c-.66,5.19-2.82,10.24-4.91,15.13-2.69,6.31-5.48,12.83-5.17,19.84a46.8,46.8,0,0,0,.74,5.75c.17,1,.35,2,.48,3.06,1.3,9.86-1.2,20.16-3.41,29.25Z"/><rect class="cls-4" x="544.25" y="344.41" width="46.44" height="54.42" transform="translate(1134.93 743.24) rotate(180)"/><path class="cls-5" d="M589.88,272.72s3-5.9,6.43-.48-4.29,9.91-4.29,9.91-6.43-6.28-5.19-8.78S589.88,272.72,589.88,272.72Z"/><path class="cls-5" d="M550.66,276.34a2.91,2.91,0,0,0,.32-1.95,7.28,7.28,0,0,1,.11-1.47,1.33,1.33,0,0,1,.4-.85,1.23,1.23,0,0,1,1.31.1,3.4,3.4,0,0,0,1.24.6,1.16,1.16,0,0,0,1.06-.49c.14-.19.21-.42.36-.61a1.31,1.31,0,0,1,1.88.12,3.76,3.76,0,0,1,.77,2,10.2,10.2,0,0,1,.13,4.69,29,29,0,0,1-1.32,2.9l-.2-.41-2.5-.06a2.65,2.65,0,0,1-.93-.12,4.3,4.3,0,0,1-1.37-1,10.57,10.57,0,0,1-1.41-1.26,1.49,1.49,0,0,1-.17-1.76C550.43,276.57,550.56,276.47,550.66,276.34Z"/><path class="cls-5" d="M583.22,306.91c.43-.05.73-.45,1-.77a4.78,4.78,0,0,1,.71-.64.83.83,0,0,1,.57-.22c.3,0,.49.34.57.63a2.19,2.19,0,0,0,.32.84.73.73,0,0,0,.71.24c.15,0,.29-.1.44-.12.46-.06.84.43.84.9a2.42,2.42,0,0,1-.52,1.26,6.57,6.57,0,0,1-2,2.27c-.6.34-1.29.49-1.92.78l.09-.29-1.15-1.15a2,2,0,0,1-.39-.47,2.89,2.89,0,0,1-.17-1.1,7.29,7.29,0,0,1-.1-1.23,1,1,0,0,1,.71-.9C583,306.92,583.11,306.93,583.22,306.91Z"/><path class="cls-5" d="M561.07,331.27c.39-.19.55-.66.72-1.06a5.21,5.21,0,0,1,.47-.83.85.85,0,0,1,.47-.39.78.78,0,0,1,.74.41,2.31,2.31,0,0,0,.57.7.79.79,0,0,0,.76,0c.13-.08.24-.19.37-.26a.84.84,0,0,1,1.08.59,2.35,2.35,0,0,1-.09,1.36,6.47,6.47,0,0,1-1.21,2.8,18.57,18.57,0,0,1-1.57,1.35v-.3l-1.46-.72a2.14,2.14,0,0,1-.52-.32,2.83,2.83,0,0,1-.51-1,6.23,6.23,0,0,1-.49-1.13,1,1,0,0,1,.38-1.09C560.87,331.34,561,331.32,561.07,331.27Z"/><path class="cls-5" d="M554,301.05a1.9,1.9,0,0,0,.72-1.07,4.54,4.54,0,0,1,.47-.83.82.82,0,0,1,.47-.39.79.79,0,0,1,.74.42,2.24,2.24,0,0,0,.57.69.75.75,0,0,0,.75,0c.14-.08.24-.2.38-.27a.86.86,0,0,1,1.08.59,2.48,2.48,0,0,1-.09,1.37,6.58,6.58,0,0,1-1.21,2.8c-.46.51-1.06.87-1.57,1.34v-.29l-1.45-.72a2.3,2.3,0,0,1-.52-.33,2.93,2.93,0,0,1-.52-1,7,7,0,0,1-.48-1.13,1,1,0,0,1,.38-1.08A2.52,2.52,0,0,1,554,301.05Z"/><path class="cls-5" d="M561.2,291.19c.4-.2.55-.66.73-1.07a4.49,4.49,0,0,1,.46-.83.85.85,0,0,1,.47-.39.81.81,0,0,1,.75.42,2.36,2.36,0,0,0,.56.69.76.76,0,0,0,.76,0c.13-.08.24-.2.38-.27a.85.85,0,0,1,1.07.59,2.47,2.47,0,0,1-.08,1.37,6.72,6.72,0,0,1-1.22,2.8,20.48,20.48,0,0,1-1.57,1.34v-.29l-1.46-.72a2.23,2.23,0,0,1-.51-.33,2.93,2.93,0,0,1-.52-1,7,7,0,0,1-.49-1.13,1,1,0,0,1,.38-1.08Z"/><path class="cls-5" d="M602,295.86a1.92,1.92,0,0,0,1-.34c.31-.27.36-.74.54-1.11a2,2,0,0,1,1.66-1,6.16,6.16,0,0,1,2,.27.66.66,0,0,1,.36.19.55.55,0,0,1,.06.4,3.28,3.28,0,0,1-1.15,2.1,1,1,0,0,0-.32.38c-.11.33.23.65.57.76s.9.14,1.33.28.86.53.8,1-.65.75-1.16.79a3.32,3.32,0,0,0-1.48.23.61.61,0,0,0-.23.22c-.17.34.2.68.38,1a1.4,1.4,0,0,1-.45,1.73,2.31,2.31,0,0,1-1.87.32,6.92,6.92,0,0,1-1.79-.77L599,300.55l-.33.21A4.37,4.37,0,0,1,602,295.86Z"/><path class="cls-5" d="M544.71,299.27a1.77,1.77,0,0,0-.9-.15c-.37.09-.59.44-.9.65a1.81,1.81,0,0,1-1.72.09,5.25,5.25,0,0,1-1.46-1.06.48.48,0,0,1-.2-.29.49.49,0,0,1,.12-.34,2.94,2.94,0,0,1,1.78-1.18.77.77,0,0,0,.42-.16c.23-.21.09-.61-.13-.84s-.65-.48-.93-.78a.92.92,0,0,1-.22-1.1c.26-.37.83-.32,1.24-.14a3,3,0,0,0,1.27.45.65.65,0,0,0,.27-.08c.27-.2.13-.62.13-1a1.25,1.25,0,0,1,1.08-1.17,2.06,2.06,0,0,1,1.61.53,5.94,5.94,0,0,1,1.08,1.36l1.8,2.74.34,0A3.9,3.9,0,0,1,544.71,299.27Z"/><path class="cls-5" d="M579.6,336.25a1.82,1.82,0,0,0,.92-.32c.3-.26.34-.7.51-1.05a2,2,0,0,1,1.58-.95,5.74,5.74,0,0,1,1.88.26.55.55,0,0,1,.34.17.5.5,0,0,1,.06.38,3.18,3.18,0,0,1-1.08,2,.87.87,0,0,0-.31.35c-.11.32.22.62.54.72s.85.13,1.26.27.81.49.76.92-.62.72-1.1.75a3,3,0,0,0-1.4.22.56.56,0,0,0-.22.21c-.16.32.19.64.36,1a1.32,1.32,0,0,1-.43,1.64,2.19,2.19,0,0,1-1.77.3,6.31,6.31,0,0,1-1.69-.73l-3-1.66-.3.2A4.13,4.13,0,0,1,579.6,336.25Z"/><path class="cls-5" d="M531.26,301.65c-.48-.54-.18-1.54-.76-2a1.2,1.2,0,0,0-.91-.18,2,2,0,0,0-1.83,1.37c-.17.87.51,1.86,0,2.58a2.79,2.79,0,0,1-.82.61,2.26,2.26,0,0,0-1.12,1.88,1.54,1.54,0,0,0,1.4,1.53,2.24,2.24,0,0,1,.58,0c.71.27.23,1.6.89,2a1.16,1.16,0,0,0,.94-.07l3.4-1.33-.2.06a1.77,1.77,0,0,0,.74-1.21,23.58,23.58,0,0,0,.55-2.6c.1-.69.12-1.52-.43-1.93S531.83,302.3,531.26,301.65Z"/><path class="cls-5" d="M564.56,313.58c.31-.65-.24-1.54.19-2.12a1.29,1.29,0,0,1,.83-.43,2,2,0,0,1,2.14.83c.39.79,0,1.93.7,2.48a2.55,2.55,0,0,0,1,.37,2.3,2.3,0,0,1,1.59,1.51,1.55,1.55,0,0,1-.93,1.85,1.77,1.77,0,0,0-.56.19c-.61.44.21,1.59-.32,2.13a1.14,1.14,0,0,1-.93.18l-3.63-.36h.21a1.75,1.75,0,0,1-1-1,22,22,0,0,1-1.23-2.36,2,2,0,0,1-.11-2C562.94,314.24,564.19,314.36,564.56,313.58Z"/><path class="cls-5" d="M539.57,281.86c.31-.63-.12-1.42.12-2.07a1.26,1.26,0,0,1,1.22-.78,1.91,1.91,0,0,1,1.35.66c.37.4.68,1,1.22,1a1.78,1.78,0,0,0,.81-.19,7.17,7.17,0,0,1,2-.45.81.81,0,0,1,.51.07.92.92,0,0,1,.31.59,5.44,5.44,0,0,1,.06,3.29,5.5,5.5,0,0,1-1.06,1.48c-.47.52-.94,1-1.4,1.55a3.31,3.31,0,0,1-1.06.88l.76.31a1.35,1.35,0,0,1-1.78-.19c-.13-.15-.22-.32-.34-.47a2.85,2.85,0,0,0-1.21-.75l-2-.81a4.15,4.15,0,0,1-1.55-.93,1.45,1.45,0,0,1-.28-1.67C537.83,282.62,539.17,282.69,539.57,281.86Z"/><path class="cls-5" d="M544.61,318.14c-.39-.53-.25-1.39-.6-2a1,1,0,0,0-1.13-.46,1.58,1.58,0,0,0-.88,1c-.19.47-.3,1.09-.7,1.28a1.17,1.17,0,0,1-.67,0,4.79,4.79,0,0,0-1.69.06.57.57,0,0,0-.37.2,1,1,0,0,0-.1.64,6.66,6.66,0,0,0,.77,3.19,5,5,0,0,0,1.18,1.17l1.46,1.16a2.66,2.66,0,0,0,1,.59l-.52.49a1,1,0,0,0,1.33-.62c.06-.17.09-.36.15-.53a2.53,2.53,0,0,1,.75-1l1.3-1.25a3.59,3.59,0,0,0,1-1.28,1.73,1.73,0,0,0-.2-1.68C546.14,318.45,545.12,318.85,544.61,318.14Z"/><path class="cls-5" d="M573.85,322.07c.65-.16,1.09-.91,1.73-1.13a1,1,0,0,1,1.16.38,1.54,1.54,0,0,1,0,1.3c-.16.49-.47,1-.29,1.44a1.22,1.22,0,0,0,.51.44,4.81,4.81,0,0,1,1.25,1.13.57.57,0,0,1,.16.39,1,1,0,0,1-.34.56,6.71,6.71,0,0,1-2.63,2,5.23,5.23,0,0,1-1.66.13l-1.86-.05a2.65,2.65,0,0,1-1.18-.21l.08.7a1,1,0,0,1-.62-1.33c.06-.17.16-.33.23-.5a2.47,2.47,0,0,0,.08-1.26c-.06-.6-.13-1.2-.19-1.81a3.63,3.63,0,0,1,.07-1.6,1.73,1.73,0,0,1,1.23-1.16C572.48,321.33,573,322.28,573.85,322.07Z"/><path class="cls-5" d="M575.64,296.93a1.74,1.74,0,0,1,.62.35,7,7,0,0,0,1,.73,1.22,1.22,0,0,0,1.17,0c.42-.28.64-.93,1.14-.93a.58.58,0,0,1,.44.19,1.71,1.71,0,0,1,.36,1.29l0,2.14a1.6,1.6,0,0,1-.15.84,1.9,1.9,0,0,1-.73.58,3.85,3.85,0,0,0-1.67,2.38l-.49.15a1.46,1.46,0,0,0-.81-.51,4.53,4.53,0,0,1-2.78-3.61,1.05,1.05,0,0,1,.07-.58c.2-.36.78-.51.77-.92a1.14,1.14,0,0,0-.23-.5,1.12,1.12,0,0,1,1.28-1.63Z"/><path class="cls-5" d="M541.51,310.21a1.72,1.72,0,0,1,.17.71,7,7,0,0,0,.13,1.21,1.2,1.2,0,0,0,.78.88c.48.13,1.11-.16,1.46.21a.63.63,0,0,1,.15.46,1.75,1.75,0,0,1-.7,1.14l-1.56,1.46a1.68,1.68,0,0,1-.72.46,2.09,2.09,0,0,1-.92-.14,3.81,3.81,0,0,0-2.88.38l-.45-.25a1.5,1.5,0,0,0-.17-.94,4.49,4.49,0,0,1,.77-4.49A1,1,0,0,1,538,311c.4-.1.9.23,1.2-.06a1.17,1.17,0,0,0,.21-.51,1.12,1.12,0,0,1,1-.77A1.14,1.14,0,0,1,541.51,310.21Z"/><rect class="cls-6" x="543.85" y="344.41" width="47.23" height="6.62" transform="translate(1134.93 695.44) rotate(180)"/><path class="cls-2" d="M39.78,285s-2.67-6-6.4-.81,3.78,10.12,3.78,10.12,6.74-5.94,5.63-8.51S39.78,285,39.78,285Z"/><path class="cls-2" d="M65.45,337.35s6.43-1.52,2-6.15-10.64,1.85-10.64,1.85,4.6,7.72,7.32,7.1S65.45,337.35,65.45,337.35Z"/><path class="cls-2" d="M56.4,298.87a2.9,2.9,0,0,1,.13-2,7.06,7.06,0,0,0,.22-1.45,1.28,1.28,0,0,0-.2-.92,1.2,1.2,0,0,0-1.29-.2,3.43,3.43,0,0,1-1.35.3,1.17,1.17,0,0,1-.92-.71c-.09-.22-.11-.46-.21-.68a1.31,1.31,0,0,0-1.86-.31,3.7,3.7,0,0,0-1.19,1.74,10.11,10.11,0,0,0-1.19,4.54,30.38,30.38,0,0,0,.62,3.13l.29-.35,2.45.5a3,3,0,0,0,.94.1,4.31,4.31,0,0,0,1.56-.71,9.49,9.49,0,0,0,1.66-.91,1.5,1.5,0,0,0,.57-1.67C56.57,299.14,56.47,299,56.4,298.87Z"/><path class="cls-2" d="M33.85,301.18a2,2,0,0,1,.33-1c.28-.31.74-.35,1.11-.54a2,2,0,0,0,1-1.67,5.88,5.88,0,0,0-.28-2,.45.45,0,0,0-.59-.42,3.36,3.36,0,0,0-2.1,1.16,1,1,0,0,1-.37.33c-.34.11-.65-.24-.77-.57s-.14-.9-.28-1.34-.53-.85-1-.79-.75.66-.78,1.16A3.22,3.22,0,0,1,29.9,297a.69.69,0,0,1-.22.23c-.34.17-.69-.2-1-.38a1.41,1.41,0,0,0-1.73.46,2.32,2.32,0,0,0-.31,1.87A6.62,6.62,0,0,0,27.4,301l1.77,3.21-.21.33A4.36,4.36,0,0,0,33.85,301.18Z"/><path class="cls-2" d="M20,312.64c-.6-.42-.56-1.45-1.22-1.75a1.25,1.25,0,0,0-.93,0,2,2,0,0,0-1.45,1.77c0,.88.94,1.69.62,2.5a2.93,2.93,0,0,1-.65.8,2.26,2.26,0,0,0-.63,2.09,1.54,1.54,0,0,0,1.72,1.15,1.92,1.92,0,0,1,.57-.11c.76.09.61,1.49,1.34,1.69a1.09,1.09,0,0,0,.89-.29c1-.7,2-1.4,3-2.11l-.19.11a1.77,1.77,0,0,0,.44-1.35,23.57,23.57,0,0,0-.1-2.66c-.06-.69-.24-1.5-.88-1.77S20.74,313.13,20,312.64Z"/><path class="cls-2" d="M43.47,320.78c-.46-.56-.14-1.55-.69-2a1.31,1.31,0,0,0-.91-.21A2,2,0,0,0,40,319.87c-.19.85.45,1.87-.08,2.57a2.82,2.82,0,0,1-.84.59,2.32,2.32,0,0,0-1.18,1.85,1.55,1.55,0,0,0,1.35,1.57,1.65,1.65,0,0,1,.59.05c.7.28.18,1.59.82,2a1.15,1.15,0,0,0,.94-.05c1.15-.4,2.3-.8,3.45-1.22l-.21.06a1.79,1.79,0,0,0,.78-1.19,23.09,23.09,0,0,0,.63-2.58c.13-.68.18-1.51-.36-1.94S44,321.44,43.47,320.78Z"/><path class="cls-2" d="M67.71,300.59c.34-.61,1.23-.7,1.63-1.28a1.27,1.27,0,0,0-.06-1.44,1.91,1.91,0,0,0-1.31-.73c-.54-.08-1.18,0-1.54-.43a1.87,1.87,0,0,1-.31-.77,7.4,7.4,0,0,0-.79-1.93.83.83,0,0,0-.36-.38.88.88,0,0,0-.65.09,5.47,5.47,0,0,0-2.74,1.83,5.13,5.13,0,0,0-.6,1.71c-.16.68-.32,1.36-.47,2a3.2,3.2,0,0,0-.12,1.37l-.69-.44a1.36,1.36,0,0,0,1.17,1.35c.19,0,.39,0,.58,0a2.88,2.88,0,0,1,1.31.56l1.78,1.14a4.27,4.27,0,0,0,1.64.74,1.45,1.45,0,0,0,1.54-.73C68.08,302.45,67.25,301.39,67.71,300.59Z"/><path class="cls-2" d="M67.28,322.29a1.8,1.8,0,0,0-.65-.32,7.56,7.56,0,0,1-1.16-.4,1.23,1.23,0,0,1-.68-.95c0-.51.41-1.06.12-1.47a.63.63,0,0,0-.41-.26,1.74,1.74,0,0,0-1.26.43l-1.78,1.19a1.67,1.67,0,0,0-.61.6,2.08,2.08,0,0,0-.07.93,3.83,3.83,0,0,1-1,2.72l.15.5a1.42,1.42,0,0,1,.88.38,4.5,4.5,0,0,0,4.54.25.94.94,0,0,0,.45-.38c.19-.37,0-.93.32-1.16a1.25,1.25,0,0,1,.55-.09,1.12,1.12,0,0,0,1-.77A1.15,1.15,0,0,0,67.28,322.29Z"/><path class="cls-2" d="M56.8,315a1.68,1.68,0,0,0-.64-.32,5.89,5.89,0,0,1-1.16-.4,1.19,1.19,0,0,1-.68-.95c0-.51.4-1.05.12-1.47a.67.67,0,0,0-.41-.26,1.8,1.8,0,0,0-1.27.43L51,313.19a1.53,1.53,0,0,0-.61.6,1.93,1.93,0,0,0-.08.93,3.81,3.81,0,0,1-1,2.72l.14.49a1.45,1.45,0,0,1,.88.38,4.52,4.52,0,0,0,4.55.26,1.07,1.07,0,0,0,.45-.39c.18-.36,0-.93.32-1.15a1.08,1.08,0,0,1,.54-.09,1.12,1.12,0,0,0,.63-2Z"/><path class="cls-2" d="M23.38,309.42a1.77,1.77,0,0,0,.31.65,6.21,6.21,0,0,1,.66,1,1.21,1.21,0,0,1-.05,1.17c-.3.41-1,.57-1,1.08a.63.63,0,0,0,.17.45,1.77,1.77,0,0,0,1.26.45l2.13.16a1.62,1.62,0,0,0,.85-.09,2.23,2.23,0,0,0,.64-.69,3.8,3.8,0,0,1,2.48-1.51l.19-.47a1.45,1.45,0,0,1-.46-.85,4.5,4.5,0,0,0-3.41-3,1,1,0,0,0-.59,0c-.37.17-.56.75-1,.71a1.16,1.16,0,0,1-.48-.27,1.15,1.15,0,0,0-1.25,0A1.17,1.17,0,0,0,23.38,309.42Z"/><path class="cls-3" d="M44.82,351.26c-1.21-4.91-3.64-11.95-8.27-17.58a35.52,35.52,0,0,0-5.12-4.81,34.12,34.12,0,0,1-6.15-6.05A31.66,31.66,0,0,1,22,316.6c-.45-1-.91-2.09-1.43-3.11a22,22,0,0,0-4.08-5c-.48-.48-.94-.95-1.37-1.4l1.61-1.51c.41.44.86.9,1.32,1.36a24.16,24.16,0,0,1,4.49,5.53c.55,1.09,1,2.18,1.48,3.23a29.24,29.24,0,0,0,3.06,5.8,31.22,31.22,0,0,0,5.77,5.65,38.17,38.17,0,0,1,5.41,5.11c4.9,6,7.44,13.31,8.71,18.45Z"/><path class="cls-3" d="M41.4,347.72c-2.95-7.19-.32-15.23,2.65-22.15l.48-1.13c2.73-6.33,5.55-12.88,4.4-19.4-.12-.66-.28-1.33-.44-2a13.43,13.43,0,0,1,1.16-11l7-16.07,2,.88-7,16.07A15.55,15.55,0,0,0,50,298.48a15.15,15.15,0,0,0,.61,4.06c.16.7.33,1.41.46,2.12,1.26,7.16-1.69,14-4.54,20.65l-.49,1.13c-2.78,6.5-5.27,14-2.64,20.44Z"/><path class="cls-3" d="M47.55,346.32l-2-.82a45.61,45.61,0,0,1,4.36-8.3,6.46,6.46,0,0,1,1.62-1.82,6.87,6.87,0,0,1,1.76-.84l.59-.22A6.34,6.34,0,0,0,57.23,331a13.83,13.83,0,0,0,.78-3.64,10.85,10.85,0,0,1,4.52-8.61l13.63-12.29,1.47,1.64L64,320.35a12.12,12.12,0,0,0-2.85,3.24,12.23,12.23,0,0,0-1,4,15.77,15.77,0,0,1-.94,4.22,8.49,8.49,0,0,1-4.58,4.54c-.22.1-.45.18-.68.26a5.41,5.41,0,0,0-1.23.56,4.92,4.92,0,0,0-1.06,1.25A43.17,43.17,0,0,0,47.55,346.32Z"/><path class="cls-3" d="M37.85,348.3c-1.13-5.63-2.3-11.45-1.8-17.37,0-.42.07-.85.12-1.28.24-2.47.5-5-.71-6.88a10.39,10.39,0,0,0-1.25-1.47l-.5-.52a18.62,18.62,0,0,1-4.9-13.39,34.48,34.48,0,0,1,.4-3.57c.16-1.17.32-2.26.37-3.37.08-1.74-.15-4.13-1.65-5.71l1.59-1.52c2,2.13,2.36,5.16,2.26,7.32a34.58,34.58,0,0,1-.39,3.59,33.56,33.56,0,0,0-.38,3.36,16.43,16.43,0,0,0,4.32,11.8l.46.48a12.24,12.24,0,0,1,1.52,1.8c1.63,2.51,1.32,5.58,1,8.3l-.12,1.24c-.47,5.61.67,11.27,1.77,16.75Z"/><path class="cls-3" d="M52.09,348.24c-6.72-11.86-7.77-24.84-2.79-34.71,2.25-4.47,5.64-8.19,8.93-11.79.83-.91,1.66-1.82,2.47-2.74,3.44-3.92,7.49-9.19,8.2-15.23l2.19.25c-.78,6.65-5.08,12.28-8.74,16.44-.82.93-1.66,1.84-2.49,2.76-3.19,3.49-6.48,7.11-8.59,11.3-4.65,9.21-3.62,21.41,2.74,32.64Z"/><path class="cls-3" d="M39.63,350.23c-1.77-9.38-3.79-20-1.91-30.19.19-1.05.42-2.09.66-3.12a44.68,44.68,0,0,0,1-5.43c.62-6.49-1.64-12.62-4-19.11-1.89-5.13-3.84-10.43-4.26-16l2.2-.16c.39,5.21,2.29,10.37,4.13,15.36,2.37,6.44,4.83,13.09,4.16,20.08a47.78,47.78,0,0,1-1,5.7c-.23,1-.46,2-.65,3-1.8,9.78.18,20.2,1.92,29.39Z"/><rect class="cls-4" x="22.12" y="344.41" width="46.44" height="54.42"/><path class="cls-5" d="M35.29,270.7s-2.68-6.05-6.4-.82S32.67,280,32.67,280s6.74-5.94,5.63-8.5S35.29,270.7,35.29,270.7Z"/><path class="cls-5" d="M62.15,276.34a2.86,2.86,0,0,1-.32-1.95,8.09,8.09,0,0,0-.11-1.47,1.35,1.35,0,0,0-.41-.85,1.23,1.23,0,0,0-1.31.1,3.4,3.4,0,0,1-1.24.6,1.18,1.18,0,0,1-1.06-.49c-.13-.19-.21-.42-.35-.61a1.32,1.32,0,0,0-1.89.12,3.76,3.76,0,0,0-.77,2,10.2,10.2,0,0,0-.12,4.69,31.39,31.39,0,0,0,1.31,2.9l.2-.41,2.5-.06a2.7,2.7,0,0,0,.94-.12,4.26,4.26,0,0,0,1.36-1,10.07,10.07,0,0,0,1.42-1.26,1.52,1.52,0,0,0,.17-1.76C62.37,276.57,62.25,276.47,62.15,276.34Z"/><path class="cls-5" d="M40.2,305.18c-.43-.07-.71-.48-1-.82a4.31,4.31,0,0,0-.67-.68.87.87,0,0,0-.56-.25c-.3,0-.5.32-.6.61a2.16,2.16,0,0,1-.36.82.78.78,0,0,1-.73.21,3.66,3.66,0,0,0-.43-.15c-.46-.09-.86.39-.88.85a2.48,2.48,0,0,0,.45,1.29,6.68,6.68,0,0,0,1.93,2.37,18.64,18.64,0,0,0,1.87.87l-.07-.28,1.21-1.09a2.25,2.25,0,0,0,.41-.46,3,3,0,0,0,.23-1.09,7.28,7.28,0,0,0,.16-1.22,1,1,0,0,0-.66-.94Z"/><path class="cls-5" d="M51.74,331.27c-.4-.19-.55-.66-.73-1.06a4.49,4.49,0,0,0-.46-.83.84.84,0,0,0-.48-.39c-.29-.07-.57.17-.74.41a2.28,2.28,0,0,1-.56.7.79.79,0,0,1-.76,0c-.13-.08-.24-.19-.38-.26a.85.85,0,0,0-1.08.59,2.44,2.44,0,0,0,.09,1.36,6.72,6.72,0,0,0,1.21,2.8c.46.52,1.07.88,1.57,1.35v-.3l1.46-.72a1.91,1.91,0,0,0,.51-.32,3,3,0,0,0,.52-1,7,7,0,0,0,.48-1.13,1,1,0,0,0-.38-1.09C51.93,331.34,51.83,331.32,51.74,331.27Z"/><path class="cls-5" d="M58.8,301.05c-.4-.2-.55-.66-.73-1.07a4.49,4.49,0,0,0-.46-.83.85.85,0,0,0-.47-.39.81.81,0,0,0-.75.42,2.21,2.21,0,0,1-.56.69.76.76,0,0,1-.76,0c-.13-.08-.24-.2-.38-.27a.85.85,0,0,0-1.07.59,2.47,2.47,0,0,0,.08,1.37,6.72,6.72,0,0,0,1.22,2.8,20.48,20.48,0,0,0,1.57,1.34v-.29L58,304.7a2.55,2.55,0,0,0,.52-.33,3.1,3.1,0,0,0,.51-1,7,7,0,0,0,.49-1.13,1,1,0,0,0-.38-1.08Z"/><path class="cls-5" d="M51.6,291.19a1.9,1.9,0,0,1-.72-1.07,4.54,4.54,0,0,0-.47-.83.82.82,0,0,0-.47-.39.79.79,0,0,0-.74.42,2.24,2.24,0,0,1-.57.69.76.76,0,0,1-.76,0c-.13-.08-.23-.2-.37-.27a.86.86,0,0,0-1.08.59,2.48,2.48,0,0,0,.09,1.37,6.58,6.58,0,0,0,1.21,2.8c.46.51,1.06.87,1.57,1.34v-.29l1.45-.72a2.3,2.3,0,0,0,.52-.33,2.93,2.93,0,0,0,.52-1,7,7,0,0,0,.48-1.13,1,1,0,0,0-.38-1.08A2.52,2.52,0,0,0,51.6,291.19Z"/><path class="cls-5" d="M28.61,290.79a1.85,1.85,0,0,1-.82-.63c-.21-.36-.1-.81-.16-1.22a2,2,0,0,0-1.27-1.47,6,6,0,0,0-2-.38.59.59,0,0,0-.39.07.53.53,0,0,0-.19.36,3.36,3.36,0,0,0,.42,2.36.89.89,0,0,1,.19.46c0,.35-.42.54-.78.54s-.9-.15-1.35-.16a1,1,0,0,0-1.07.68c-.1.5.38.92.85,1.12a3.28,3.28,0,0,1,1.34.68.53.53,0,0,1,.14.28c.06.38-.4.59-.68.85a1.41,1.41,0,0,0-.11,1.79,2.32,2.32,0,0,0,1.67.89,6.68,6.68,0,0,0,1.94-.17l3.61-.65.25.3A4.37,4.37,0,0,0,28.61,290.79Z"/><path class="cls-5" d="M68.09,299.27a1.82,1.82,0,0,1,.91-.15c.36.09.59.44.89.65a1.83,1.83,0,0,0,1.73.09,5.56,5.56,0,0,0,1.46-1.06.53.53,0,0,0,.2-.29.49.49,0,0,0-.12-.34A2.93,2.93,0,0,0,71.37,297a.77.77,0,0,1-.41-.16c-.23-.21-.09-.61.12-.84s.66-.48.94-.78a.9.9,0,0,0,.21-1.1c-.26-.37-.82-.32-1.24-.14a2.86,2.86,0,0,1-1.26.45.57.57,0,0,1-.27-.08c-.28-.2-.14-.62-.13-1a1.26,1.26,0,0,0-1.09-1.17,2,2,0,0,0-1.6.53,6,6,0,0,0-1.09,1.36l-1.79,2.74-.35,0A3.91,3.91,0,0,0,68.09,299.27Z"/><path class="cls-5" d="M37.09,336.17a1.93,1.93,0,0,1-.78-.59,3.39,3.39,0,0,1-.15-1.16A1.92,1.92,0,0,0,35,333a5.7,5.7,0,0,0-1.88-.36.43.43,0,0,0-.55.4,3.19,3.19,0,0,0,.4,2.24.78.78,0,0,1,.18.43c0,.33-.4.51-.74.52s-.85-.15-1.28-.15a1,1,0,0,0-1,.64c-.09.47.36.87.81,1.05a3.09,3.09,0,0,1,1.26.65.59.59,0,0,1,.14.27c.05.35-.38.55-.65.79a1.35,1.35,0,0,0-.11,1.7,2.19,2.19,0,0,0,1.59.84A6.37,6.37,0,0,0,35,341.9l3.41-.62.23.28A4.13,4.13,0,0,0,37.09,336.17Z"/><path class="cls-5" d="M15.66,301.65c-.48-.54-.19-1.54-.76-2a1.2,1.2,0,0,0-.91-.18,2,2,0,0,0-1.83,1.37c-.17.87.5,1.86,0,2.58a2.79,2.79,0,0,1-.82.61,2.3,2.3,0,0,0-1.12,1.88,1.55,1.55,0,0,0,1.4,1.53,2.32,2.32,0,0,1,.59,0c.7.27.23,1.6.88,2a1.15,1.15,0,0,0,.94-.07l3.41-1.33-.21.06A1.78,1.78,0,0,0,18,306.9a26.14,26.14,0,0,0,.55-2.6c.1-.69.12-1.52-.43-1.93S16.23,302.3,15.66,301.65Z"/><path class="cls-5" d="M48.25,313.58c-.32-.65.23-1.54-.2-2.12a1.25,1.25,0,0,0-.82-.43,2,2,0,0,0-2.14.83c-.39.79,0,1.93-.7,2.48a2.67,2.67,0,0,1-1,.37,2.27,2.27,0,0,0-1.58,1.51,1.54,1.54,0,0,0,.93,1.85,1.63,1.63,0,0,1,.55.19c.61.44-.21,1.59.33,2.13a1.13,1.13,0,0,0,.92.18c1.21-.11,2.43-.23,3.64-.36H48a1.78,1.78,0,0,0,1-1,26.42,26.42,0,0,0,1.23-2.36,2,2,0,0,0,.11-2C49.87,314.24,48.62,314.36,48.25,313.58Z"/><path class="cls-5" d="M73.23,281.86c-.3-.63.13-1.42-.11-2.07A1.28,1.28,0,0,0,71.9,279a1.91,1.91,0,0,0-1.35.66c-.37.4-.68,1-1.23,1a1.78,1.78,0,0,1-.81-.19,7.11,7.11,0,0,0-2-.45.83.83,0,0,0-.52.07.92.92,0,0,0-.31.59,4.12,4.12,0,0,0,1,4.77L68.06,287a3.2,3.2,0,0,0,1.06.88l-.76.31a1.35,1.35,0,0,0,1.78-.19c.12-.15.21-.32.33-.47a3,3,0,0,1,1.21-.75l1.95-.81a4.27,4.27,0,0,0,1.56-.93,1.43,1.43,0,0,0,.27-1.67C75,282.62,73.63,282.69,73.23,281.86Z"/><path class="cls-5" d="M29,318.14c-.39-.53-.25-1.39-.59-2a1,1,0,0,0-1.14-.46,1.61,1.61,0,0,0-.88,1c-.19.47-.29,1.09-.69,1.28a1.21,1.21,0,0,1-.68,0,4.74,4.74,0,0,0-1.68.06.57.57,0,0,0-.38.2,1,1,0,0,0-.09.64,6.54,6.54,0,0,0,.76,3.19,5.23,5.23,0,0,0,1.18,1.17l1.47,1.16a2.63,2.63,0,0,0,1,.59l-.51.49a1,1,0,0,0,1.33-.62c.06-.17.09-.36.14-.53a2.53,2.53,0,0,1,.75-1l1.31-1.25a3.57,3.57,0,0,0,1-1.28,1.73,1.73,0,0,0-.19-1.68C30.53,318.45,29.52,318.85,29,318.14Z"/><path class="cls-5" d="M62.11,322.6c-.23-.62.14-1.41,0-2.06a1,1,0,0,0-1-.75,1.59,1.59,0,0,0-1.11.69c-.31.41-.58,1-1,1a1.14,1.14,0,0,1-.65-.16,5,5,0,0,0-1.64-.41.68.68,0,0,0-.42.09,1,1,0,0,0-.26.6,6.55,6.55,0,0,0-.13,3.28,5,5,0,0,0,.82,1.44c.36.51.73,1,1.09,1.51a2.63,2.63,0,0,0,.84.85l-.62.33a1,1,0,0,0,1.44-.23c.11-.15.18-.32.28-.48a2.78,2.78,0,0,1,1-.78l1.6-.85a3.63,3.63,0,0,0,1.28-1,1.7,1.7,0,0,0,.27-1.67C63.5,323.31,62.42,323.42,62.11,322.6Z"/><path class="cls-5" d="M81.87,306.94a1.8,1.8,0,0,0-.65-.32,7.56,7.56,0,0,1-1.16-.4,1.22,1.22,0,0,1-.68-1c0-.51.41-1.06.12-1.47a.67.67,0,0,0-.41-.26,1.74,1.74,0,0,0-1.26.43l-1.78,1.19a1.67,1.67,0,0,0-.61.6,2.08,2.08,0,0,0-.07.93,3.87,3.87,0,0,1-1,2.73l.15.49a1.42,1.42,0,0,1,.88.38,4.5,4.5,0,0,0,4.54.25.94.94,0,0,0,.45-.38c.19-.37,0-.93.32-1.15a1,1,0,0,1,.55-.09,1.13,1.13,0,0,0,.63-2Z"/><path class="cls-5" d="M67.56,309.56a1.83,1.83,0,0,0-.67.26,6.23,6.23,0,0,1-1.08.58,1.2,1.2,0,0,1-1.16-.15c-.38-.33-.5-1-1-1.08a.63.63,0,0,0-.46.12,1.74,1.74,0,0,0-.55,1.23c-.1.7-.21,1.41-.32,2.11a1.67,1.67,0,0,0,0,.86,2,2,0,0,0,.64.68,3.84,3.84,0,0,1,1.31,2.59l.46.23a1.49,1.49,0,0,1,.87-.39,4.52,4.52,0,0,0,3.28-3.17,1,1,0,0,0,0-.58c-.14-.39-.7-.62-.63-1a1.08,1.08,0,0,1,.3-.46,1.13,1.13,0,0,0-1-1.81Z"/><rect class="cls-6" x="21.73" y="344.41" width="47.23" height="6.62"/><rect class="cls-7" x="106.39" y="51.33" width="186.73" height="344.83"/><polygon class="cls-8" points="293.12 51.33 293.12 134.8 230.65 134.8 217.53 262.15 119.7 134.8 106.39 134.8 106.39 51.33 293.12 51.33"/><rect class="cls-9" x="121.38" y="58.45" width="162.66" height="337.71"/><polygon class="cls-10" points="284.04 58.45 284.04 362.43 172.86 251.25 159.29 58.45 284.04 58.45"/><polygon class="cls-11" points="284.32 269.85 284.04 269.85 284.04 373.33 230.65 373.33 235.41 276.79 235.75 269.85 235.91 266.72 237.09 242.8 237.24 239.67 238.42 215.75 238.57 212.62 239.66 190.57 280.41 190.57 280.52 192.89 281.07 203.94 281.5 212.62 281.57 214.12 281.65 215.75 282.36 230.11 282.83 239.67 282.86 240.29 282.98 242.8 283.58 254.83 284.04 264.2 284.16 266.72 284.19 267.24 284.32 269.85"/><polygon class="cls-9" points="284.32 269.85 284.04 269.85 284.04 373.33 260.03 373.33 260.03 192.89 284.04 192.89 284.04 264.2 284.16 266.72 284.19 267.24 284.32 269.85"/><rect class="cls-11" x="278.56" y="203.94" width="5.48" height="10.18"/><rect class="cls-11" x="262.97" y="201.71" width="14.2" height="12.41" transform="translate(540.13 415.83) rotate(180)"/><rect class="cls-11" x="274.21" y="284.71" width="9.83" height="10.18"/><rect class="cls-11" x="258.61" y="282.48" width="14.2" height="12.41" transform="translate(531.43 577.37) rotate(180)"/><rect class="cls-11" x="261.93" y="224.29" width="18.31" height="15.99"/><rect class="cls-11" x="281.37" y="230.11" width="2.67" height="10.18"/><rect class="cls-11" x="258.42" y="257.06" width="11.65" height="10.18"/><polygon class="cls-11" points="284.19 267.24 271.08 267.24 271.08 254.83 284.04 254.83 284.04 264.2 284.16 266.72 284.19 267.24"/><rect class="cls-11" x="282.98" y="332.73" width="1.06" height="15.99"/><rect class="cls-11" x="258.44" y="305.77" width="18.31" height="15.99"/><rect class="cls-11" x="277.89" y="311.59" width="6.15" height="10.18"/><rect class="cls-11" x="254.93" y="338.54" width="11.65" height="10.18"/><rect class="cls-11" x="267.6" y="336.31" width="14.2" height="12.41"/><rect class="cls-12" x="235.35" y="212.62" width="48.69" height="3.13"/><rect class="cls-12" x="235.4" y="239.67" width="48.64" height="3.13"/><polygon class="cls-12" points="284.32 269.85 235.44 269.85 235.44 266.72 284.16 266.72 284.19 267.24 284.32 269.85"/><rect class="cls-12" x="235.49" y="293.77" width="48.55" height="3.13"/><rect class="cls-12" x="235.53" y="320.82" width="48.51" height="3.13"/><rect class="cls-12" x="235.57" y="347.87" width="48.47" height="3.13"/><rect class="cls-11" x="121.38" y="373.33" width="162.66" height="22.83"/><polygon class="cls-10" points="284.32 269.85 284.04 269.85 284.04 325.42 282.57 323.95 264.39 305.77 260.03 301.41 255.52 296.9 252.39 293.77 235.41 276.79 235.75 269.85 235.44 269.85 235.44 266.72 235.91 266.72 237.09 242.8 235.4 242.8 235.4 239.67 237.24 239.67 238.42 215.75 235.35 215.75 235.35 212.62 238.57 212.62 239.66 190.57 280.41 190.57 280.52 192.89 284.04 192.89 284.04 264.2 284.16 266.72 284.19 267.24 284.32 269.85"/><rect class="cls-13" x="114.7" y="58.45" width="77.16" height="337.71"/><rect class="cls-14" x="119.7" y="58.45" width="77.16" height="337.71"/><rect class="cls-13" x="126.51" y="95.28" width="63.54" height="262"/><rect class="cls-2" x="126.51" y="95.28" width="61.02" height="262"/><polygon class="cls-8" points="196.86 58.45 196.86 235.24 191.86 228.73 119.7 134.8 114.7 134.8 114.7 58.45 196.86 58.45"/><polygon class="cls-15" points="194.86 188.49 194.86 193.89 200.72 193.89 200.72 243.55 194.86 243.55 194.86 248.94 204.19 248.94 204.19 188.49 194.86 188.49"/><polygon class="cls-16" points="192.86 188.49 192.86 193.89 198.72 193.89 198.72 243.55 192.86 243.55 192.86 248.94 202.19 248.94 202.19 188.49 192.86 188.49"/><path class="cls-8" d="M293.12,58.42V97a21.63,21.63,0,0,1-27.8-20.71,21.61,21.61,0,1,1-43.22,0,21.62,21.62,0,0,1-43.23,0,21.61,21.61,0,0,1-43.22,0A21.61,21.61,0,0,1,114,97.92a21.29,21.29,0,0,1-7.65-1.4V58.42Z"/><rect class="cls-7" x="342.47" y="51.33" width="178.42" height="230.62"/><rect class="cls-17" x="349.89" y="58.45" width="163.58" height="215.49"/><polygon class="cls-2" points="444.1 273.94 395.12 273.94 395.32 269.85 395.48 266.72 396.66 242.8 396.81 239.67 397.99 215.75 398.14 212.62 399.23 190.57 439.99 190.57 440.1 192.89 440.65 203.94 441.08 212.62 441.15 214.12 441.23 215.75 441.94 230.11 442.41 239.67 442.44 240.29 442.56 242.8 443.16 254.83 443.74 266.72 443.77 267.24 443.9 269.85 444.1 273.94"/><rect class="cls-17" x="419.61" y="192.89" width="90.09" height="81.05"/><rect class="cls-2" x="475.96" y="198.13" width="18.31" height="15.99" transform="translate(970.23 412.25) rotate(180)"/><rect class="cls-2" x="446.04" y="251.25" width="18.31" height="15.99" transform="translate(910.39 518.49) rotate(180)"/><rect class="cls-2" x="463.17" y="203.94" width="11.65" height="10.18" transform="translate(937.99 418.06) rotate(180)"/><rect class="cls-2" x="438.14" y="203.94" width="11.65" height="10.18" transform="translate(887.93 418.06) rotate(180)"/><rect class="cls-2" x="422.54" y="201.71" width="14.2" height="12.41" transform="translate(859.29 415.83) rotate(180)"/><rect class="cls-2" x="450.65" y="200.32" width="11.65" height="13.81" transform="translate(912.96 414.44) rotate(180)"/><rect class="cls-2" x="421.5" y="224.29" width="18.31" height="15.99"/><rect class="cls-2" x="440.95" y="230.11" width="11.65" height="10.18"/><rect class="cls-2" x="465.98" y="230.11" width="11.65" height="10.18"/><rect class="cls-2" x="465.98" y="257.06" width="11.65" height="10.18"/><rect class="cls-2" x="417.99" y="257.06" width="11.65" height="10.18"/><rect class="cls-2" x="479.03" y="227.88" width="14.2" height="12.41"/><rect class="cls-2" x="430.66" y="254.83" width="14.2" height="12.41"/><rect class="cls-2" x="453.47" y="226.48" width="11.65" height="13.81"/><rect class="cls-2" x="479.29" y="253.44" width="11.65" height="13.81"/><rect class="cls-5" x="394.93" y="212.62" width="108.04" height="3.13" transform="translate(897.91 428.38) rotate(180)"/><rect class="cls-5" x="394.98" y="239.67" width="108.04" height="3.13" transform="translate(897.99 482.47) rotate(180)"/><rect class="cls-5" x="395.02" y="266.72" width="108.04" height="3.13" transform="translate(898.08 536.57) rotate(180)"/><polygon class="cls-5" points="513.47 190.57 513.47 273.94 485.21 273.94 485.42 269.85 485.54 267.24 485.57 266.72 486.22 253.44 486.75 242.8 486.87 240.29 486.9 239.67 487.48 227.88 488.08 215.75 488.16 214.12 488.23 212.62 488.95 198.13 489.21 192.89 489.32 190.57 513.47 190.57"/><rect class="cls-17" x="349.89" y="192.89" width="19.72" height="81.05"/><rect class="cls-2" x="349.89" y="198.13" width="4.29" height="15.99"/><rect class="cls-2" x="349.89" y="227.88" width="3.25" height="12.41"/><rect class="cls-2" x="349.89" y="253.44" width="0.96" height="13.8"/><rect class="cls-5" x="349.89" y="212.62" width="13" height="3.13"/><rect class="cls-5" x="349.89" y="239.67" width="13.04" height="3.13"/><rect class="cls-5" x="349.89" y="266.72" width="13.08" height="3.13"/><polygon class="cls-5" points="394.1 273.94 349.89 273.94 349.89 190.57 389.99 190.57 394.1 273.94"/><polygon class="cls-18" points="467.6 58.45 349.89 176.16 349.89 58.45 467.6 58.45"/><polygon class="cls-18" points="507.73 58.45 349.89 216.3 349.89 191.58 483.02 58.45 507.73 58.45"/><polygon class="cls-18" points="513.47 87.5 513.47 95.8 349.89 259.38 349.89 251.08 513.47 87.5"/><path class="cls-8" d="M520.89,57.42V96.84c-.6,0-1.2.08-1.81.08a21.61,21.61,0,0,1-21.62-21.61,21.61,21.61,0,1,1-43.22,0,21.61,21.61,0,0,1-43.22,0,21.61,21.61,0,1,1-43.22,0,21.61,21.61,0,0,1-21.61,21.61,20.75,20.75,0,0,1-3.72-.33V57.42Z"/><path class="cls-2" d="M614.27,405.61H4.72A4.73,4.73,0,0,1,0,400.88H0a4.73,4.73,0,0,1,4.72-4.72H614.27a4.73,4.73,0,0,1,4.73,4.72h0A4.73,4.73,0,0,1,614.27,405.61Z"/><polygon class="cls-2" points="139.82 0 135.65 38.41 92.43 38.41 99.38 0 139.82 0"/><polygon class="cls-15" points="178.87 38.41 180.26 0 139.83 0 135.65 38.41 178.87 38.41"/><polygon class="cls-2" points="222.09 38.41 220.7 0 180.26 0 178.87 38.41 222.09 38.41"/><polygon class="cls-15" points="265.32 38.41 261.14 0 220.7 0 222.09 38.41 265.32 38.41"/><polygon class="cls-2" points="308.54 38.41 265.31 38.41 261.14 0 301.58 0 308.54 38.41"/><path class="cls-2" d="M92.43,38.41V56.3A21.61,21.61,0,0,0,114,77.91h0A21.61,21.61,0,0,0,135.65,56.3V38.41Z"/><path class="cls-15" d="M135.65,38.41V56.3a21.62,21.62,0,0,0,21.61,21.61h0A21.61,21.61,0,0,0,178.87,56.3V38.41Z"/><path class="cls-2" d="M178.87,38.41V56.3a21.62,21.62,0,0,0,21.61,21.61h0A21.62,21.62,0,0,0,222.1,56.3V38.41Z"/><path class="cls-15" d="M222.1,38.41V56.3a21.61,21.61,0,0,0,21.61,21.61h0A21.62,21.62,0,0,0,265.32,56.3V38.41Z"/><path class="cls-2" d="M265.32,38.41V56.3a21.61,21.61,0,0,0,21.61,21.61h0A21.62,21.62,0,0,0,308.54,56.3V38.41Z"/><polygon class="cls-18" points="308.54 38.41 92.43 38.41 99.38 0 301.58 0 308.54 38.41"/><polygon class="cls-2" points="371.97 0 367.8 38.41 324.58 38.41 331.53 0 371.97 0"/><polygon class="cls-15" points="411.02 38.41 412.41 0 371.97 0 367.8 38.41 411.02 38.41"/><polygon class="cls-2" points="454.24 38.41 452.85 0 412.41 0 411.02 38.41 454.24 38.41"/><polygon class="cls-15" points="497.46 38.41 493.29 0 452.85 0 454.24 38.41 497.46 38.41"/><polygon class="cls-2" points="540.69 38.41 497.46 38.41 493.29 0 533.73 0 540.69 38.41"/><path class="cls-2" d="M324.57,38.41V56.3a21.62,21.62,0,0,0,21.62,21.61h0A21.62,21.62,0,0,0,367.8,56.3V38.41Z"/><path class="cls-15" d="M367.8,38.41V56.3a21.61,21.61,0,0,0,21.61,21.61h0A21.62,21.62,0,0,0,411,56.3V38.41Z"/><path class="cls-2" d="M411,38.41V56.3a21.61,21.61,0,0,0,21.61,21.61h0A21.61,21.61,0,0,0,454.24,56.3V38.41Z"/><path class="cls-15" d="M454.24,38.41V56.3a21.62,21.62,0,0,0,21.61,21.61h0A21.61,21.61,0,0,0,497.46,56.3V38.41Z"/><path class="cls-2" d="M497.46,38.41V56.3a21.62,21.62,0,0,0,21.61,21.61h0A21.62,21.62,0,0,0,540.69,56.3V38.41Z"/><polygon class="cls-18" points="540.69 38.41 324.58 38.41 331.53 0 533.73 0 540.69 38.41"/><rect class="cls-4" x="399.02" y="115.16" width="67.81" height="89.96" transform="translate(-4.1 11.55) rotate(-1.52)"/><text class="cls-19" transform="matrix(1, -0.03, 0.03, 1, 409.13, 169.35)">OPEN</text><text class="cls-20" transform="matrix(1, -0.03, 0.03, 1, 407.65, 151.1)">WE<tspan class="cls-21" x="18.92" y="0"> </tspan><tspan x="22.59" y="0">ARE</tspan></text><path class="cls-22" d="M442.19,180.14l-1.75,8.27-9.92.43-2.27-8.1,13.94-.6m1-1.63h0l-16.06.69a.74.74,0,0,0-.69,1l2.73,9.75a.75.75,0,0,0,.74.55h0l11.23-.48a.76.76,0,0,0,.7-.6l2.1-10a.75.75,0,0,0-.76-.91Z"/><path class="cls-22" d="M440.29,195.82a2.7,2.7,0,0,1-2.77-2.59h0a2.71,2.71,0,1,1,2.82,2.59Zm-1.19-2.65a1.08,1.08,0,0,0,.36.77,1,1,0,0,0,.81.3,1.11,1.11,0,0,0,1.07-1.17,1.13,1.13,0,0,0-1.15-1.08h0a1.11,1.11,0,0,0-1.07,1.17Z"/><path class="cls-22" d="M429.42,196.29a2.7,2.7,0,1,1,2.64-2.82,2.72,2.72,0,0,1-2.64,2.82Zm-.1-3.83h0a1.1,1.1,0,0,0-.78.36,1.14,1.14,0,0,0-.29.81,1.11,1.11,0,0,0,1.15,1.07h0a1.12,1.12,0,0,0-.08-2.24Z"/><path class="cls-22" d="M426.87,180.79a.76.76,0,0,1-.41-.1l-3.2-1.81a.79.79,0,0,1,.78-1.38l3.2,1.81a.8.8,0,0,1,.3,1.08A.77.77,0,0,1,426.87,180.79Z"/><path class="cls-22" d="M428.51,185.62a.8.8,0,0,1-.05-1.59l13.61-.58h0a.79.79,0,0,1,.81.76.78.78,0,0,1-.76.82l-13.61.59Z"/><path class="cls-22" d="M437.21,190.3h-.07a.79.79,0,0,1-.75-.83l.57-9.88a.81.81,0,0,1,.84-.75.8.8,0,0,1,.75.84l-.57,9.88A.8.8,0,0,1,437.21,190.3Z"/><path class="cls-22" d="M433.48,190.36a.79.79,0,0,1-.81-.7l-1.11-9.8a.79.79,0,0,1,.69-.88.8.8,0,0,1,.88.7l1.11,9.8a.79.79,0,0,1-.69.88Z"/><polygon class="cls-6" points="402.74 113.05 405.05 114.34 395.81 123.87 394.8 121.56 402.74 113.05"/><polygon class="cls-6" points="469.5 197.8 471.81 199.1 462.57 208.63 461.56 206.32 469.5 197.8"/><polygon class="cls-6" points="469.27 118.21 468.25 120.66 457.72 112.58 459.9 111.31 469.27 118.21"/><polygon class="cls-6" points="407.4 206.11 406.38 208.56 395.85 200.48 398.03 199.21 407.4 206.11"/><path class="cls-23" d="M387.05,129.44s.37,36.33,0,44.82c-.29,5.94-43.31,3.84-43.31,3.84l-.41-17.43,32.8,3.85,4.77-37.41Z"/><path class="cls-24" d="M340.9,159.38l28.8,3.73s4.66,5.61-1.34,21.37c0,0-20.33,0-24,6.09Z"/><path class="cls-23" d="M232.88,239a21.89,21.89,0,0,1,3.61-2.88c2.6-1.14,4.06-1.76,5-3,.71-.89,3.3-1.38,3.3-1.38s1.08-4-2-6.55a8.08,8.08,0,0,1-2.79.65c-1.39-.35-2.52-2.24-5.17-2.36a20.09,20.09,0,0,1-5.94-1.57,1.12,1.12,0,0,0-.11,1.81c1.05.92,3.21,1.15,3.55,1.7a1.62,1.62,0,0,1,.17.35v0a1.48,1.48,0,0,1,0,1.27.36.36,0,0,1,0,.09c-.94,1.27-4.31,2.3-5.84,2.62-2.14.43-5.06,1.19-4.27,2.37s1.71-.28,6.63-.36l.18.47c.35,0-2.62,1.64-5.56,2.55-2,.63-1,1.8-.23,1.94s2.66-.78,4.13-1.21l2.56-.81.45.49c-3.09,2.88-4.73,2.52-4.53,3.73s3.12.08,4.11-.82a11.47,11.47,0,0,1,2.37-1.34c-1.93,2.65-3.25,2.72-2.88,3.64S232.22,239.91,232.88,239Z"/><path class="cls-25" d="M236.36,228.64c-2.12-.26-3.6-2.58-3.78-2.87a1.48,1.48,0,0,1,0,1.27A3.65,3.65,0,0,0,236.36,228.64Z"/><path class="cls-23" d="M286.41,172.59s-.81.33-2.46,3.09-11.27,35.88-11.27,35.88-17.25,8.81-29.82,13.6l.79,6.83s34-8.14,36.49-8.69,14.15-29.69,14.15-29.69Z"/><path class="cls-24" d="M290.79,162.89s-3.26,0-13.62,29.1l-2.74,7.22s5.8,9.07,16.36,8.79l8.54-14.42Z"/><path class="cls-24" d="M256.7,394.4a14,14,0,0,0,.1,1.74h29.46c0-.59,0-1.17-.05-1.74A54,54,0,0,0,283.45,380l-7.36-3.16a11.82,11.82,0,0,1-4.32,7.8,10.87,10.87,0,0,1-1.68,1.08c-.27.14-.54.28-.82.4a14.84,14.84,0,0,1-1.89.7,46,46,0,0,1-7.07,1.24C257.17,388.56,256.7,392.18,256.7,394.4Z"/><path class="cls-26" d="M256.7,394.4a14,14,0,0,0,.1,1.74h29.46c0-.59,0-1.17-.05-1.74Z"/><path class="cls-26" d="M270.09,385.73l4.08,1.31.87-1.5-3.27-.89A10.87,10.87,0,0,1,270.09,385.73Z"/><path class="cls-26" d="M267.38,386.83l2.76,1.83,1.69-.67-2.56-1.86A14.84,14.84,0,0,1,267.38,386.83Z"/><path class="cls-24" d="M309,394.4a7.64,7.64,0,0,0,.34,1.74h19.62a10.31,10.31,0,0,0,.55-1.74c1.93-9.39-11.11-20.88-11.11-20.88L314.24,379s.48,8.84-3,10.68A4.49,4.49,0,0,0,309,394.4Z"/><path class="cls-26" d="M329.49,394.4H309a7.64,7.64,0,0,0,.34,1.74h19.62A10.31,10.31,0,0,0,329.49,394.4Z"/><path class="cls-26" d="M312.11,389s8.27-1.89,12,.55v-1.36S317.2,384.83,312.11,389Z"/><path class="cls-26" d="M313.75,386.92s5.28-2.41,10.4,0l-.59-1.38S317.45,383.23,313.75,386.92Z"/><path class="cls-27" d="M341.75,242.64c0,18.66-1.84,37.67-2.31,42.49s-5.46,58.69-6.17,79.52c-.36,10.68-3.78,23.6-3.78,23.6s-10.17-8.22-15.93-2.12l-1.45-8.33,2.7-6.55s-2.88-5.43-.52-9.64,3.08-94.3,3.08-94.3l-4.54-.29L289.16,371.25v5.93s-2.86,7.57-2.9,12.39l-15.43-4.92,2.37-6.85-.64-9.76,4.33-12.74s16-99.63,14.76-110.81Z"/><path class="cls-15" d="M290.79,162.89a119.31,119.31,0,0,1,26.72-4.1c11-.51,29.49,1.23,29.49,1.23,2.29,5.26-4,96.89-4,96.89s-28.72,2-53.38-3.72c0,0,3.74-30.18,3.12-50.86S290.79,162.89,290.79,162.89Z"/><path class="cls-25" d="M312.67,151s1.5,6.19-.79,8.66c0,0,6.21,7.26,12.2-.06,0,0-1.61-4.07,0-6.71Z"/><path class="cls-23" d="M329.24,139.91s3.18-3.17,3.57.54c.45,4.3-3.45,6-4.22,4.66S329.24,139.91,329.24,139.91Z"/><path class="cls-23" d="M307,140.14s-3.18-3.18-3.57.53c-.46,4.3,3.45,6,4.21,4.67S307,140.14,307,140.14Z"/><path class="cls-23" d="M318.43,155.48c7.06,0,11-4.61,11-18.43,0-7.14-3.62-11.51-11.53-11.51s-11.24,4.37-11.24,11.51C306.7,151.9,311.14,155.48,318.43,155.48Z"/><path class="cls-28" d="M309,142a1.67,1.67,0,1,0,1.83-1A1.49,1.49,0,0,0,309,142Z"/><path class="cls-28" d="M323.56,142.36a1.67,1.67,0,1,0,1.54-1.4A1.5,1.5,0,0,0,323.56,142.36Z"/><path class="cls-29" d="M311.33,134.69a.34.34,0,0,0,.27-.07,4,4,0,0,1,2.83-.55.35.35,0,0,0,.41-.28.35.35,0,0,0-.28-.42,4.77,4.77,0,0,0-3.39.69.35.35,0,0,0,.16.63Z"/><path class="cls-29" d="M324.84,134.74a.32.32,0,0,0,.23-.13.35.35,0,0,0-.05-.49,4.73,4.73,0,0,0-3.37-.8.37.37,0,0,0-.3.41.36.36,0,0,0,.41.29,4.08,4.08,0,0,1,2.81.64A.35.35,0,0,0,324.84,134.74Z"/><path class="cls-22" d="M312.06,138.67c0,.88.39,1.59.88,1.59s.88-.71.88-1.59-.39-1.58-.88-1.58S312.06,137.8,312.06,138.67Z"/><path class="cls-22" d="M321.49,138.67c0,.88.39,1.59.88,1.59s.88-.71.88-1.59-.4-1.58-.88-1.58S321.49,137.8,321.49,138.67Z"/><path class="cls-22" d="M326.34,128.92l-15.69-1.11S306.7,131.92,307,142c0,0-6.31-18.22,12.12-18.22s10.13,17.81,10.13,17.81S329.77,132.34,326.34,128.92Z"/><path class="cls-28" d="M318,143.26l.52-.53-1.39-1.39c1.35-1.91,1.35-6.34,1.34-6.54h-.75s0,4.81-1.37,6.31l-.25.26Z"/><path class="cls-22" d="M322.67,145.57s-6.95.29-10.45-.63a4.65,4.65,0,0,0,4.76,5.3C322.67,150.5,322.67,145.57,322.67,145.57Z"/><path class="cls-22" d="M328.37,123.81s-2.64-4.28-10.94-4.2c-7.57.08-11.65,3.67-11.84,7.75s5.89,4.75,5.89,4.75-1.66-1-1.66-1.92a15.62,15.62,0,0,0,8.7,1.92l-2.43-1.5s7.07,1.57,11.23-.38c0,0,3.19,1.49,3.76,3.77a6.48,6.48,0,0,0,1.76-6.31A5.29,5.29,0,0,0,328.37,123.81Z"/><path class="cls-6" d="M337.69,174.48s1.3-13.11,2.52-15.78h-3.65a69.77,69.77,0,0,0-2.5,15.78Z"/><path class="cls-6" d="M301.56,160s-1.25,7.59,0,14h-4.47s0-10.75.81-13.42Z"/><path class="cls-4" d="M338.06,171.1s-25.25,4-40.88,1.49l-2.45,47.27L292,223.23l-.87,14.18,2.41,1L292,295.34s12.6-.73,44.75-1l4.16-56.18a11.56,11.56,0,0,0,4.16-1.5V224.29l-5.34-3.93S337.14,184.17,338.06,171.1Z"/><ellipse class="cls-6" cx="316.98" cy="199.21" rx="12.83" ry="11.95" transform="translate(111.67 512.27) rotate(-88.89)"/><path class="cls-27" d="M316.94,206.74a6,6,0,0,1-1.66-.24c-2.38-.72-4.3-2.9-4.36-4.29a.5.5,0,0,1,.48-.52.5.5,0,0,1,.52.48c0,.79,1.48,2.72,3.65,3.37,1.59.48,4,.37,6.31-2.87a.5.5,0,0,1,.7-.11.51.51,0,0,1,.11.7C320.68,206.05,318.56,206.74,316.94,206.74Z"/><path class="cls-27" d="M321.73,196.29c0,.73-.34,1.33-.72,1.32s-.67-.61-.66-1.35.34-1.33.72-1.32S321.74,195.55,321.73,196.29Z"/><path class="cls-27" d="M313.79,196.13c0,.74-.33,1.33-.71,1.32s-.68-.61-.66-1.34.33-1.33.71-1.33S313.81,195.4,313.79,196.13Z"/><path class="cls-23" d="M380.23,128.11c.59.62,6.06,2.09,7.29,1.41,1.41-.78,1.86-2.47,3-5.08a22,22,0,0,1,2.84-3.64c.92-.67,2.35-2.87,1.39-3.26s-1,.95-3.62,2.91a11.68,11.68,0,0,1,1.32-2.38c.89-1,2-3.92.78-4.11s-.84,1.44-3.68,4.55l-.5-.44c.18-.6.49-1.6.78-2.57.43-1.47,1.34-3.42,1.18-4.14s-1.33-1.78-1.94.25c-.88,3-2.48,5.93-2.5,5.58l-.47-.17c0-4.92,1.49-5.85.3-6.63s-1.92,2.14-2.34,4.28c-.3,1.54-1.3,4.92-2.56,5.86a.25.25,0,0,1-.08,0,1.5,1.5,0,0,1-1.28,0h0a1.62,1.62,0,0,1-.35-.17c-.55-.33-.81-2.49-1.73-3.54a1.13,1.13,0,0,0-1.81.13,20,20,0,0,1,1.62,5.93A7.61,7.61,0,0,0,380.23,128.11Z"/><path class="cls-25" d="M383,124.37c-.27-2.12-2.61-3.57-2.9-3.75a1.5,1.5,0,0,0,1.28,0A3.65,3.65,0,0,1,383,124.37Z"/></g></g></g></svg>